G04 #@! TF.FileFunction,Soldermask,Top*
%FSLAX46Y46*%
G04 Gerber Fmt 4.6, Leading zero omitted, Abs format (unit mm)*
G04 Created by KiCad (PCBNEW (2014-11-27 BZR 5304)-product) date 2015 March 23, Monday 21:33:43*
%MOMM*%
G01*
G04 APERTURE LIST*
%ADD10C,0.100000*%
%ADD11R,1.300000X0.900000*%
%ADD12R,0.900000X1.300000*%
%ADD13R,1.850000X0.850000*%
%ADD14C,1.906220*%
%ADD15C,0.900380*%
%ADD16C,3.600000*%
%ADD17R,2.127200X2.432000*%
%ADD18O,2.127200X2.432000*%
%ADD19R,1.197560X1.197560*%
%ADD20R,1.000000X2.100000*%
%ADD21R,1.150000X1.200000*%
%ADD22R,1.200000X1.150000*%
%ADD23R,1.700000X0.650000*%
%ADD24R,0.650000X1.700000*%
%ADD25R,2.100000X1.900000*%
%ADD26R,6.000700X2.500580*%
%ADD27R,1.750000X0.800000*%
%ADD28O,1.450000X1.250000*%
%ADD29O,1.900000X1.200000*%
%ADD30R,2.432000X2.432000*%
%ADD31O,2.432000X2.432000*%
%ADD32O,3.414980X1.906220*%
%ADD33R,4.387800X1.441400*%
%ADD34R,8.705800X11.144200*%
%ADD35R,1.441400X4.387800*%
%ADD36R,11.144200X8.705800*%
%ADD37R,1.300000X2.100000*%
%ADD38R,2.178000X2.559000*%
%ADD39R,0.850000X1.900000*%
%ADD40R,1.460000X1.050000*%
G04 APERTURE END LIST*
D10*
D11*
X168225000Y-85345000D03*
X168225000Y-83845000D03*
X169825000Y-85345000D03*
X169825000Y-83845000D03*
X171425000Y-85345000D03*
X171425000Y-83845000D03*
X168225000Y-82945000D03*
X168225000Y-81445000D03*
X169825000Y-82945000D03*
X169825000Y-81445000D03*
X171425000Y-82945000D03*
X171425000Y-81445000D03*
X174225000Y-94845000D03*
X174225000Y-93345000D03*
X176625000Y-88645000D03*
X176625000Y-87145000D03*
D12*
X173775000Y-90195000D03*
X172275000Y-90195000D03*
X173775000Y-91795000D03*
X172275000Y-91795000D03*
D11*
X173325000Y-88645000D03*
X173325000Y-87145000D03*
X175025000Y-88645000D03*
X175025000Y-87145000D03*
X176625000Y-86145000D03*
X176625000Y-84645000D03*
X173325000Y-86145000D03*
X173325000Y-84645000D03*
X175025000Y-86145000D03*
X175025000Y-84645000D03*
X160125000Y-85845000D03*
X160125000Y-84345000D03*
X163325000Y-85845000D03*
X163325000Y-84345000D03*
X164925000Y-84345000D03*
X164925000Y-85845000D03*
X161725000Y-84345000D03*
X161725000Y-85845000D03*
D12*
X165175000Y-97095000D03*
X163675000Y-97095000D03*
X107875000Y-83995000D03*
X109375000Y-83995000D03*
X112875000Y-83995000D03*
X114375000Y-83995000D03*
X115375000Y-83995000D03*
X116875000Y-83995000D03*
X110375000Y-83995000D03*
X111875000Y-83995000D03*
D13*
X110675000Y-78120000D03*
X110675000Y-77470000D03*
X110675000Y-76820000D03*
X110675000Y-76170000D03*
X110675000Y-75520000D03*
X110675000Y-74870000D03*
X110675000Y-74220000D03*
X110675000Y-73570000D03*
X110675000Y-72920000D03*
X110675000Y-72270000D03*
X104775000Y-72270000D03*
X104775000Y-72920000D03*
X104775000Y-73570000D03*
X104775000Y-74220000D03*
X104775000Y-74870000D03*
X104775000Y-75520000D03*
X104775000Y-76170000D03*
X104775000Y-76820000D03*
X104775000Y-77470000D03*
X104775000Y-78120000D03*
X127675000Y-78120000D03*
X127675000Y-77470000D03*
X127675000Y-76820000D03*
X127675000Y-76170000D03*
X127675000Y-75520000D03*
X127675000Y-74870000D03*
X127675000Y-74220000D03*
X127675000Y-73570000D03*
X127675000Y-72920000D03*
X127675000Y-72270000D03*
X121775000Y-72270000D03*
X121775000Y-72920000D03*
X121775000Y-73570000D03*
X121775000Y-74220000D03*
X121775000Y-74870000D03*
X121775000Y-75520000D03*
X121775000Y-76170000D03*
X121775000Y-76820000D03*
X121775000Y-77470000D03*
X121775000Y-78120000D03*
D14*
X182615000Y-64925000D03*
X182615000Y-67465000D03*
X180075000Y-64925000D03*
X180075000Y-67465000D03*
X177535000Y-64925000D03*
X177535000Y-67465000D03*
X174995000Y-64925000D03*
X174995000Y-67465000D03*
X172455000Y-64925000D03*
X172455000Y-67465000D03*
X169915000Y-64925000D03*
X169915000Y-67465000D03*
X167375000Y-64925000D03*
X167375000Y-67465000D03*
X164835000Y-64925000D03*
X164835000Y-67465000D03*
X124615000Y-131925000D03*
X124615000Y-134465000D03*
X122075000Y-131925000D03*
X122075000Y-134465000D03*
X119535000Y-131925000D03*
X119535000Y-134465000D03*
X116995000Y-131925000D03*
X116995000Y-134465000D03*
X114455000Y-131925000D03*
X114455000Y-134465000D03*
X111915000Y-131925000D03*
X111915000Y-134465000D03*
X109375000Y-131925000D03*
X109375000Y-134465000D03*
X106835000Y-131925000D03*
X106835000Y-134465000D03*
X153615000Y-131925000D03*
X153615000Y-134465000D03*
X151075000Y-131925000D03*
X151075000Y-134465000D03*
X148535000Y-131925000D03*
X148535000Y-134465000D03*
X145995000Y-131925000D03*
X145995000Y-134465000D03*
X143455000Y-131925000D03*
X143455000Y-134465000D03*
X140915000Y-131925000D03*
X140915000Y-134465000D03*
X138375000Y-131925000D03*
X138375000Y-134465000D03*
X135835000Y-131925000D03*
X135835000Y-134465000D03*
X182615000Y-131925000D03*
X182615000Y-134465000D03*
X180075000Y-131925000D03*
X180075000Y-134465000D03*
X177535000Y-131925000D03*
X177535000Y-134465000D03*
X174995000Y-131925000D03*
X174995000Y-134465000D03*
X172455000Y-131925000D03*
X172455000Y-134465000D03*
X169915000Y-131925000D03*
X169915000Y-134465000D03*
X167375000Y-131925000D03*
X167375000Y-134465000D03*
X164835000Y-131925000D03*
X164835000Y-134465000D03*
D15*
X141724380Y-107195620D03*
X141724380Y-106194860D03*
X141724380Y-105194100D03*
X141724380Y-104195880D03*
X141724380Y-103195120D03*
X141724380Y-102194360D03*
X141724380Y-101196140D03*
X141724380Y-100195380D03*
X141724380Y-99194620D03*
X141724380Y-98193860D03*
X141724380Y-97195640D03*
X141724380Y-96194880D03*
X141724380Y-95194120D03*
X141724380Y-94195900D03*
X141724380Y-93195140D03*
X141724380Y-92194380D03*
X142725140Y-107195620D03*
X143725900Y-107195620D03*
X144724120Y-107195620D03*
X145724880Y-107195620D03*
X146725640Y-107195620D03*
X147723860Y-107195620D03*
X148724620Y-107195620D03*
X149725380Y-107195620D03*
X142725140Y-92194380D03*
X142725140Y-93195140D03*
X142725140Y-94195900D03*
X142725140Y-95194120D03*
X142725140Y-96194880D03*
X142725140Y-97195640D03*
X142725140Y-98193860D03*
X142725140Y-99194620D03*
X142725140Y-100195380D03*
X142725140Y-101196140D03*
X142725140Y-102194360D03*
X142725140Y-103195120D03*
X142725140Y-106194860D03*
X142725140Y-105194100D03*
X142725140Y-104195880D03*
X143725900Y-106194860D03*
X143725900Y-105194100D03*
X143725900Y-104195880D03*
X143725900Y-103195120D03*
X143725900Y-102194360D03*
X143725900Y-101196140D03*
X143725900Y-100195380D03*
X143725900Y-99194620D03*
X144724120Y-106194860D03*
X144724120Y-105194100D03*
X144724120Y-104195880D03*
X144724120Y-103195120D03*
X144724120Y-102194360D03*
X144724120Y-101196140D03*
X144724120Y-100195380D03*
X144724120Y-99194620D03*
X145724880Y-106194860D03*
X145724880Y-105194100D03*
X145724880Y-104195880D03*
X143725900Y-98193860D03*
X144724120Y-98193860D03*
X143725900Y-97195640D03*
X144724120Y-97195640D03*
X144724120Y-96194880D03*
X143725900Y-96194880D03*
X143725900Y-95194120D03*
X143725900Y-94195900D03*
X144724120Y-94195900D03*
X144724120Y-95194120D03*
X143725900Y-93195140D03*
X144724120Y-93195140D03*
X144724120Y-92194380D03*
X143725900Y-92194380D03*
X145724880Y-95194120D03*
X146725640Y-95194120D03*
X147723860Y-95194120D03*
X147723860Y-94195900D03*
X146725640Y-94195900D03*
X145724880Y-94195900D03*
X145724880Y-93195140D03*
X146725640Y-93195140D03*
X147723860Y-93195140D03*
X147723860Y-92194380D03*
X146725640Y-92194380D03*
X145724880Y-92194380D03*
X146725640Y-106194860D03*
X146725640Y-105194100D03*
X146725640Y-104195880D03*
X147723860Y-104195880D03*
X147723860Y-105194100D03*
X147723860Y-106194860D03*
X148724620Y-106194860D03*
X148724620Y-105194100D03*
X148724620Y-104195880D03*
X149725380Y-104195880D03*
X149725380Y-105194100D03*
X149725380Y-106194860D03*
X150726140Y-107195620D03*
X150726140Y-106194860D03*
X150726140Y-105194100D03*
X150726140Y-104195880D03*
X151724360Y-104195880D03*
X151724360Y-105194100D03*
X151724360Y-106194860D03*
X151724360Y-107195620D03*
X152725120Y-107195620D03*
X152725120Y-106194860D03*
X152725120Y-105194100D03*
X152725120Y-104195880D03*
X153725880Y-104195880D03*
X154724100Y-104195880D03*
X155724860Y-104195880D03*
X155724860Y-105194100D03*
X154724100Y-105194100D03*
X153725880Y-105194100D03*
X153725880Y-106194860D03*
X154724100Y-106194860D03*
X155724860Y-106194860D03*
X153725880Y-107195620D03*
X154724100Y-107195620D03*
X155724860Y-107195620D03*
X156725620Y-107195620D03*
X156725620Y-106194860D03*
X156725620Y-105194100D03*
X156725620Y-104195880D03*
X145724880Y-100195380D03*
X145724880Y-101196140D03*
X145724880Y-102194360D03*
X145724880Y-103195120D03*
X146725640Y-103195120D03*
X146725640Y-102194360D03*
X146725640Y-101196140D03*
X146725640Y-100195380D03*
X147723860Y-103195120D03*
X147723860Y-102194360D03*
X147723860Y-101196140D03*
X147723860Y-100195380D03*
X148724620Y-103195120D03*
X148724620Y-102194360D03*
X148724620Y-101196140D03*
X148724620Y-100195380D03*
X149725380Y-103195120D03*
X149725380Y-102194360D03*
X149725380Y-101196140D03*
X149725380Y-100195380D03*
X150726140Y-103195120D03*
X150726140Y-102194360D03*
X150726140Y-101196140D03*
X150726140Y-100195380D03*
X151724360Y-103195120D03*
X151724360Y-102194360D03*
X151724360Y-101196140D03*
X151724360Y-100195380D03*
X152725120Y-103195120D03*
X152725120Y-102194360D03*
X152725120Y-101196140D03*
X154724100Y-103195120D03*
X154724100Y-102194360D03*
X155724860Y-103195120D03*
X155724860Y-102194360D03*
X156725620Y-103195120D03*
X156725620Y-102194360D03*
X152725120Y-100195380D03*
X153725880Y-103195120D03*
X153725880Y-102194360D03*
X153725880Y-101196140D03*
X154724100Y-97195640D03*
X154724100Y-98193860D03*
X154724100Y-99194620D03*
X154724100Y-100195380D03*
X154724100Y-101196140D03*
X155724860Y-101196140D03*
X155724860Y-100195380D03*
X155724860Y-99194620D03*
X155724860Y-98193860D03*
X155724860Y-97195640D03*
X156725620Y-101196140D03*
X156725620Y-100195380D03*
X156725620Y-99194620D03*
X156725620Y-98193860D03*
X156725620Y-97195640D03*
X153725880Y-100195380D03*
X145724880Y-99194620D03*
X145724880Y-98193860D03*
X145724880Y-97195640D03*
X145724880Y-96194880D03*
X154724100Y-96194880D03*
X146725640Y-99194620D03*
X146725640Y-98193860D03*
X146725640Y-97195640D03*
X146725640Y-96194880D03*
X149725380Y-99194620D03*
X147723860Y-96194880D03*
X147723860Y-97195640D03*
X147723860Y-98193860D03*
X147723860Y-99194620D03*
X155724860Y-96194880D03*
X156725620Y-96194880D03*
X148724620Y-99194620D03*
X148724620Y-98193860D03*
X148724620Y-97195640D03*
X148724620Y-96194880D03*
X149725380Y-98193860D03*
X149725380Y-97195640D03*
X149725380Y-96194880D03*
X148724620Y-95194120D03*
X149725380Y-95194120D03*
X150726140Y-95194120D03*
X151724360Y-95194120D03*
X152725120Y-95194120D03*
X153725880Y-95194120D03*
X154724100Y-95194120D03*
X155724860Y-95194120D03*
X156725620Y-95194120D03*
X153725880Y-99194620D03*
X152725120Y-99194620D03*
X151724360Y-99194620D03*
X150726140Y-99194620D03*
X150726140Y-98193860D03*
X151724360Y-98193860D03*
X152725120Y-98193860D03*
X153725880Y-98193860D03*
X156725620Y-94195900D03*
X155724860Y-94195900D03*
X154724100Y-94195900D03*
X153725880Y-94195900D03*
X152725120Y-94195900D03*
X151724360Y-94195900D03*
X150726140Y-94195900D03*
X149725380Y-94195900D03*
X148724620Y-94195900D03*
X148724620Y-93195140D03*
X149725380Y-93195140D03*
X150726140Y-93195140D03*
X151724360Y-93195140D03*
X152725120Y-93195140D03*
X153725880Y-93195140D03*
X154724100Y-93195140D03*
X155724860Y-93195140D03*
X156725620Y-93195140D03*
X153725880Y-97195640D03*
X152725120Y-97195640D03*
X151724360Y-97195640D03*
X150726140Y-97195640D03*
X150726140Y-96194880D03*
X151724360Y-96194880D03*
X152725120Y-96194880D03*
X153725880Y-96194880D03*
X156725620Y-92194380D03*
X155724860Y-92194380D03*
X154724100Y-92194380D03*
X153725880Y-92194380D03*
X152725120Y-92194380D03*
X151724360Y-92194380D03*
X150726140Y-92194380D03*
X149725380Y-92194380D03*
X148724620Y-92194380D03*
D16*
X116205000Y-123825000D03*
X116205000Y-75565000D03*
X182245000Y-78740000D03*
X182245000Y-120650000D03*
D14*
X124615000Y-64925000D03*
X124615000Y-67465000D03*
X122075000Y-64925000D03*
X122075000Y-67465000D03*
X119535000Y-64925000D03*
X119535000Y-67465000D03*
X116995000Y-64925000D03*
X116995000Y-67465000D03*
X114455000Y-64925000D03*
X114455000Y-67465000D03*
X111915000Y-64925000D03*
X111915000Y-67465000D03*
X109375000Y-64925000D03*
X109375000Y-67465000D03*
X106835000Y-64925000D03*
X106835000Y-67465000D03*
X153615000Y-64925000D03*
X153615000Y-67465000D03*
X151075000Y-64925000D03*
X151075000Y-67465000D03*
X148535000Y-64925000D03*
X148535000Y-67465000D03*
X145995000Y-64925000D03*
X145995000Y-67465000D03*
X143455000Y-64925000D03*
X143455000Y-67465000D03*
X140915000Y-64925000D03*
X140915000Y-67465000D03*
X138375000Y-64925000D03*
X138375000Y-67465000D03*
X135835000Y-64925000D03*
X135835000Y-67465000D03*
D17*
X103505000Y-86487000D03*
D18*
X106045000Y-86487000D03*
X108585000Y-86487000D03*
X111125000Y-86487000D03*
X113665000Y-86487000D03*
X116205000Y-86487000D03*
D19*
X175725000Y-93345700D03*
X175725000Y-94844300D03*
D20*
X164330000Y-87845000D03*
X163060000Y-87845000D03*
X161790000Y-87845000D03*
X160520000Y-87845000D03*
X160520000Y-95345000D03*
X161790000Y-95345000D03*
X163060000Y-95345000D03*
X164330000Y-95345000D03*
D21*
X176325000Y-106245000D03*
X176325000Y-104745000D03*
X174525000Y-106245000D03*
X174525000Y-104745000D03*
D22*
X163575000Y-114195000D03*
X162075000Y-114195000D03*
X160575000Y-114195000D03*
X159075000Y-114195000D03*
D21*
X186625000Y-114145000D03*
X186625000Y-115645000D03*
X175525000Y-115445000D03*
X175525000Y-116945000D03*
D22*
X161075000Y-111795000D03*
X159575000Y-111795000D03*
D23*
X172075000Y-110045000D03*
X172075000Y-109545000D03*
X172075000Y-109045000D03*
X172075000Y-108545000D03*
X172075000Y-108045000D03*
X172075000Y-107545000D03*
X172075000Y-107045000D03*
X172075000Y-106545000D03*
X172075000Y-106045000D03*
X172075000Y-105545000D03*
X172075000Y-105045000D03*
X172075000Y-104545000D03*
D24*
X170475000Y-102945000D03*
X169975000Y-102945000D03*
X169475000Y-102945000D03*
X168975000Y-102945000D03*
X168475000Y-102945000D03*
X167975000Y-102945000D03*
X167475000Y-102945000D03*
X166975000Y-102945000D03*
X166475000Y-102945000D03*
X165975000Y-102945000D03*
X165475000Y-102945000D03*
X164975000Y-102945000D03*
D23*
X163375000Y-104545000D03*
X163375000Y-105045000D03*
X163375000Y-105545000D03*
X163375000Y-106045000D03*
X163375000Y-106545000D03*
X163375000Y-107045000D03*
X163375000Y-107545000D03*
X163375000Y-108045000D03*
X163375000Y-108545000D03*
X163375000Y-109045000D03*
X163375000Y-109545000D03*
X163375000Y-110045000D03*
D24*
X164975000Y-111645000D03*
X165475000Y-111645000D03*
X165975000Y-111645000D03*
X166475000Y-111645000D03*
X166975000Y-111645000D03*
X167475000Y-111645000D03*
X167975000Y-111645000D03*
X168475000Y-111645000D03*
X168975000Y-111645000D03*
X169475000Y-111645000D03*
X169975000Y-111645000D03*
X170475000Y-111645000D03*
D12*
X166475000Y-114195000D03*
X164975000Y-114195000D03*
X174375000Y-108395000D03*
X175875000Y-108395000D03*
X161075000Y-109895000D03*
X159575000Y-109895000D03*
X181375000Y-108395000D03*
X179875000Y-108395000D03*
X181375000Y-106595000D03*
X179875000Y-106595000D03*
X181375000Y-104795000D03*
X179875000Y-104795000D03*
X173775000Y-116395000D03*
X172275000Y-116395000D03*
X173775000Y-117995000D03*
X172275000Y-117995000D03*
X172475000Y-114195000D03*
X170975000Y-114195000D03*
X168275000Y-114195000D03*
X169775000Y-114195000D03*
D11*
X172525000Y-94845000D03*
X172525000Y-93345000D03*
D25*
X169695000Y-95195000D03*
X167155000Y-95195000D03*
X167155000Y-97395000D03*
X169695000Y-97395000D03*
D26*
X174876140Y-111995000D03*
X184573860Y-111995000D03*
D27*
X183800000Y-106095000D03*
X183800000Y-105445000D03*
X183800000Y-104795000D03*
X183800000Y-104145000D03*
X183800000Y-103495000D03*
D28*
X183475000Y-102570000D03*
X183475000Y-107020000D03*
D29*
X186475000Y-108970000D03*
X186475000Y-100620000D03*
D13*
X142675000Y-78120000D03*
X142675000Y-77470000D03*
X142675000Y-76820000D03*
X142675000Y-76170000D03*
X142675000Y-75520000D03*
X142675000Y-74870000D03*
X142675000Y-74220000D03*
X142675000Y-73570000D03*
X142675000Y-72920000D03*
X142675000Y-72270000D03*
X136775000Y-72270000D03*
X136775000Y-72920000D03*
X136775000Y-73570000D03*
X136775000Y-74220000D03*
X136775000Y-74870000D03*
X136775000Y-75520000D03*
X136775000Y-76170000D03*
X136775000Y-76820000D03*
X136775000Y-77470000D03*
X136775000Y-78120000D03*
X152675000Y-78120000D03*
X152675000Y-77470000D03*
X152675000Y-76820000D03*
X152675000Y-76170000D03*
X152675000Y-75520000D03*
X152675000Y-74870000D03*
X152675000Y-74220000D03*
X152675000Y-73570000D03*
X152675000Y-72920000D03*
X152675000Y-72270000D03*
X146775000Y-72270000D03*
X146775000Y-72920000D03*
X146775000Y-73570000D03*
X146775000Y-74220000D03*
X146775000Y-74870000D03*
X146775000Y-75520000D03*
X146775000Y-76170000D03*
X146775000Y-76820000D03*
X146775000Y-77470000D03*
X146775000Y-78120000D03*
X167175000Y-78120000D03*
X167175000Y-77470000D03*
X167175000Y-76820000D03*
X167175000Y-76170000D03*
X167175000Y-75520000D03*
X167175000Y-74870000D03*
X167175000Y-74220000D03*
X167175000Y-73570000D03*
X167175000Y-72920000D03*
X167175000Y-72270000D03*
X161275000Y-72270000D03*
X161275000Y-72920000D03*
X161275000Y-73570000D03*
X161275000Y-74220000D03*
X161275000Y-74870000D03*
X161275000Y-75520000D03*
X161275000Y-76170000D03*
X161275000Y-76820000D03*
X161275000Y-77470000D03*
X161275000Y-78120000D03*
X177175000Y-78120000D03*
X177175000Y-77470000D03*
X177175000Y-76820000D03*
X177175000Y-76170000D03*
X177175000Y-75520000D03*
X177175000Y-74870000D03*
X177175000Y-74220000D03*
X177175000Y-73570000D03*
X177175000Y-72920000D03*
X177175000Y-72270000D03*
X171275000Y-72270000D03*
X171275000Y-72920000D03*
X171275000Y-73570000D03*
X171275000Y-74220000D03*
X171275000Y-74870000D03*
X171275000Y-75520000D03*
X171275000Y-76170000D03*
X171275000Y-76820000D03*
X171275000Y-77470000D03*
X171275000Y-78120000D03*
X104775000Y-121270000D03*
X104775000Y-121920000D03*
X104775000Y-122570000D03*
X104775000Y-123220000D03*
X104775000Y-123870000D03*
X104775000Y-124520000D03*
X104775000Y-125170000D03*
X104775000Y-125820000D03*
X104775000Y-126470000D03*
X104775000Y-127120000D03*
X110675000Y-127120000D03*
X110675000Y-126470000D03*
X110675000Y-125820000D03*
X110675000Y-125170000D03*
X110675000Y-124520000D03*
X110675000Y-123870000D03*
X110675000Y-123220000D03*
X110675000Y-122570000D03*
X110675000Y-121920000D03*
X110675000Y-121270000D03*
X121775000Y-121270000D03*
X121775000Y-121920000D03*
X121775000Y-122570000D03*
X121775000Y-123220000D03*
X121775000Y-123870000D03*
X121775000Y-124520000D03*
X121775000Y-125170000D03*
X121775000Y-125820000D03*
X121775000Y-126470000D03*
X121775000Y-127120000D03*
X127675000Y-127120000D03*
X127675000Y-126470000D03*
X127675000Y-125820000D03*
X127675000Y-125170000D03*
X127675000Y-124520000D03*
X127675000Y-123870000D03*
X127675000Y-123220000D03*
X127675000Y-122570000D03*
X127675000Y-121920000D03*
X127675000Y-121270000D03*
X136775000Y-121270000D03*
X136775000Y-121920000D03*
X136775000Y-122570000D03*
X136775000Y-123220000D03*
X136775000Y-123870000D03*
X136775000Y-124520000D03*
X136775000Y-125170000D03*
X136775000Y-125820000D03*
X136775000Y-126470000D03*
X136775000Y-127120000D03*
X142675000Y-127120000D03*
X142675000Y-126470000D03*
X142675000Y-125820000D03*
X142675000Y-125170000D03*
X142675000Y-124520000D03*
X142675000Y-123870000D03*
X142675000Y-123220000D03*
X142675000Y-122570000D03*
X142675000Y-121920000D03*
X142675000Y-121270000D03*
X149075000Y-121270000D03*
X149075000Y-121920000D03*
X149075000Y-122570000D03*
X149075000Y-123220000D03*
X149075000Y-123870000D03*
X149075000Y-124520000D03*
X149075000Y-125170000D03*
X149075000Y-125820000D03*
X149075000Y-126470000D03*
X149075000Y-127120000D03*
X154975000Y-127120000D03*
X154975000Y-126470000D03*
X154975000Y-125820000D03*
X154975000Y-125170000D03*
X154975000Y-124520000D03*
X154975000Y-123870000D03*
X154975000Y-123220000D03*
X154975000Y-122570000D03*
X154975000Y-121920000D03*
X154975000Y-121270000D03*
X160575000Y-121270000D03*
X160575000Y-121920000D03*
X160575000Y-122570000D03*
X160575000Y-123220000D03*
X160575000Y-123870000D03*
X160575000Y-124520000D03*
X160575000Y-125170000D03*
X160575000Y-125820000D03*
X160575000Y-126470000D03*
X160575000Y-127120000D03*
X166475000Y-127120000D03*
X166475000Y-126470000D03*
X166475000Y-125820000D03*
X166475000Y-125170000D03*
X166475000Y-124520000D03*
X166475000Y-123870000D03*
X166475000Y-123220000D03*
X166475000Y-122570000D03*
X166475000Y-121920000D03*
X166475000Y-121270000D03*
X172375000Y-121270000D03*
X172375000Y-121920000D03*
X172375000Y-122570000D03*
X172375000Y-123220000D03*
X172375000Y-123870000D03*
X172375000Y-124520000D03*
X172375000Y-125170000D03*
X172375000Y-125820000D03*
X172375000Y-126470000D03*
X172375000Y-127120000D03*
X178275000Y-127120000D03*
X178275000Y-126470000D03*
X178275000Y-125820000D03*
X178275000Y-125170000D03*
X178275000Y-124520000D03*
X178275000Y-123870000D03*
X178275000Y-123220000D03*
X178275000Y-122570000D03*
X178275000Y-121920000D03*
X178275000Y-121270000D03*
D11*
X178225000Y-106245000D03*
X178225000Y-104745000D03*
D22*
X116875000Y-116795000D03*
X115375000Y-116795000D03*
X116975000Y-107295000D03*
X115475000Y-107295000D03*
D21*
X123425000Y-103445000D03*
X123425000Y-101945000D03*
X133125000Y-103445000D03*
X133125000Y-101945000D03*
D19*
X121275700Y-107295000D03*
X122774300Y-107295000D03*
D30*
X130925000Y-114395000D03*
D31*
X128385000Y-114395000D03*
D17*
X172625000Y-101295000D03*
D18*
X175165000Y-101295000D03*
X177705000Y-101295000D03*
X180245000Y-101295000D03*
D32*
X122925000Y-114265000D03*
X122925000Y-111725000D03*
D11*
X125025000Y-106345000D03*
X125025000Y-107845000D03*
X126625000Y-106345000D03*
X126625000Y-107845000D03*
D12*
X119875000Y-107295000D03*
X118375000Y-107295000D03*
D33*
X117025800Y-109455000D03*
X117025800Y-111995000D03*
X117025800Y-114535000D03*
D34*
X106472100Y-111995000D03*
D35*
X130865000Y-103495800D03*
X128325000Y-103495800D03*
X125785000Y-103495800D03*
D36*
X128325000Y-92942100D03*
D37*
X121075000Y-116895000D03*
X118175000Y-116895000D03*
D38*
X132357000Y-110295000D03*
X128293000Y-110295000D03*
D21*
X171725000Y-97445000D03*
X171725000Y-95945000D03*
D11*
X173025000Y-97445000D03*
X173025000Y-95945000D03*
D39*
X171100000Y-86945000D03*
X170450000Y-86945000D03*
X169800000Y-86945000D03*
X169150000Y-86945000D03*
X168500000Y-86945000D03*
X167850000Y-86945000D03*
X167200000Y-86945000D03*
X166550000Y-86945000D03*
X166550000Y-92845000D03*
X167200000Y-92845000D03*
X167850000Y-92845000D03*
X168500000Y-92845000D03*
X169150000Y-92845000D03*
X169800000Y-92845000D03*
X170450000Y-92845000D03*
X171100000Y-92845000D03*
D40*
X168425000Y-116045000D03*
X168425000Y-116995000D03*
X168425000Y-117945000D03*
X170625000Y-117945000D03*
X170625000Y-116045000D03*
X170625000Y-116995000D03*
M02*
