M48
;DRILL file {kicad (2014-11-27 BZR 5304)-product} date 2015 March 23, Monday 21:33:45
;FORMAT={-:-/ absolute / inch / decimal}
FMAT,2
INCH,TZ
T1C0.012
T2C0.024
T3C0.026
T4C0.039
T5C0.040
T6C0.126
%
G90
G05
M72
T1
X4.0679Y-3.0746
X4.1112Y-5.1533
X4.1152Y-2.7045
X4.1152Y-5.0313
X4.1152Y-5.0904
X4.1663Y-4.7754
X4.1703Y-2.9998
X4.1703Y-3.051
X4.2884Y-2.7596
X4.312Y-2.8463
X4.3671Y-4.3148
X4.3671Y-4.3384
X4.3671Y-4.362
X4.3671Y-4.3856
X4.3671Y-4.4093
X4.3671Y-4.4329
X4.3671Y-4.4565
X4.3671Y-4.4801
X4.3671Y-4.5037
X4.3986Y-3.0746
X4.4026Y-4.799
X4.4026Y-4.8502
X4.4301Y-4.7754
X4.5089Y-4.5982
X4.5128Y-4.3069
X4.5128Y-4.5077
X4.5167Y-4.4093
X4.5207Y-4.2242
X4.5837Y-4.4762
X4.5837Y-4.5431
X4.6073Y-4.2793
X4.6073Y-4.3423
X4.6073Y-4.3778
X4.6073Y-4.4407
X4.6309Y-4.4762
X4.6309Y-4.5431
X4.69Y-4.5667
X4.69Y-4.6022
X4.6978Y-4.3069
X4.6978Y-4.4093
X4.7018Y-4.5077
X4.7254Y-3.0746
X4.7451Y-3.051
X4.753Y-4.7754
X4.753Y-4.799
X4.753Y-4.8502
X4.7766Y-5.0313
X4.8356Y-4.1927
X4.8593Y-3.047
X4.8593Y-3.988
X4.8632Y-4.7675
X4.8632Y-4.988
X4.8711Y-2.8699
X4.8907Y-4.2478
X4.9577Y-3.8384
X4.9616Y-4.2203
X4.9616Y-4.2754
X4.9774Y-2.8463
X4.9813Y-3.8384
X4.9852Y-4.2203
X4.9852Y-4.2754
X5.0049Y-3.8384
X5.0089Y-4.2203
X5.0089Y-4.2754
X5.0207Y-4.0746
X5.0285Y-3.8384
X5.0522Y-3.8384
X5.0522Y-3.9801
X5.0522Y-4.1652
X5.0719Y-4.7754
X5.0758Y-3.8384
X5.0837Y-4.0746
X5.0876Y-2.9998
X5.0876Y-3.051
X5.0955Y-4.8423
X5.0994Y-3.8384
X5.1152Y-4.11
X5.1152Y-4.1455
X5.1152Y-4.1809
X5.123Y-3.8384
X5.1467Y-3.8384
X5.1545Y-3.9604
X5.186Y-4.1455
X5.186Y-4.1809
X5.19Y-2.7006
X5.2215Y-5.177
X5.2687Y-3.0746
X5.2726Y-4.7754
X5.2766Y-4.4211
X5.3081Y-4.425
X5.3238Y-5.0904
X5.3474Y-4.1809
X5.3474Y-4.236
X5.3474Y-4.4211
X5.3711Y-5.0352
X5.4183Y-4.4211
X5.4301Y-2.9998
X5.4341Y-4.173
X5.4341Y-4.2321
X5.4892Y-4.4211
X5.497Y-4.362
X5.501Y-4.173
X5.501Y-4.2321
X5.5049Y-3.7085
X5.5049Y-3.7478
X5.5049Y-3.7872
X5.5049Y-3.8266
X5.5049Y-3.8659
X5.5049Y-3.9053
X5.5049Y-3.9447
X5.5049Y-3.9841
X5.5049Y-4.0234
X5.5049Y-4.0628
X5.5049Y-4.1022
X5.5246Y-3.6888
X5.5246Y-3.7281
X5.5246Y-3.7675
X5.5246Y-3.8069
X5.5246Y-3.8463
X5.5246Y-3.8856
X5.5246Y-3.925
X5.5246Y-3.9644
X5.5246Y-4.0037
X5.5246Y-4.0431
X5.5246Y-4.0825
X5.5325Y-3.5943
X5.5325Y-3.6219
X5.5325Y-3.6494
X5.5364Y-3.3896
X5.5364Y-3.4722
X5.5364Y-3.5392
X5.5482Y-2.7636
X5.5561Y-3.6061
X5.5758Y-2.8463
X5.5797Y-4.2518
X5.6191Y-4.3069
X5.6388Y-3.6888
X5.6388Y-3.7675
X5.6388Y-3.8463
X5.6388Y-3.925
X5.6388Y-4.0037
X5.6388Y-4.1219
X5.6388Y-4.1612
X5.6467Y-3.4722
X5.6467Y-3.5392
X5.6663Y-3.0746
X5.6663Y-4.7754
X5.6781Y-3.7675
X5.6781Y-3.8069
X5.6781Y-3.8463
X5.6781Y-4.0037
X5.6781Y-4.0431
X5.6781Y-4.0825
X5.6781Y-4.1219
X5.6821Y-3.047
X5.6821Y-4.3423
X5.69Y-4.8541
X5.7096Y-3.4368
X5.7136Y-3.3896
X5.7175Y-3.6888
X5.7175Y-3.7281
X5.7175Y-3.7675
X5.7175Y-3.8856
X5.7175Y-3.925
X5.7175Y-3.9644
X5.7175Y-4.0431
X5.7175Y-4.1219
X5.7175Y-4.1612
X5.7215Y-3.0077
X5.7215Y-3.3423
X5.7451Y-4.3738
X5.749Y-3.3423
X5.7569Y-3.7675
X5.7569Y-3.8069
X5.7569Y-3.925
X5.7569Y-4.0825
X5.7569Y-4.1219
X5.7608Y-2.7163
X5.7687Y-3.3856
X5.7766Y-4.3974
X5.7805Y-4.7754
X5.7805Y-4.803
X5.7844Y-3.425
X5.7963Y-3.6888
X5.7963Y-3.7281
X5.7963Y-3.7675
X5.7963Y-3.8463
X5.7963Y-3.8856
X5.7963Y-3.925
X5.7963Y-3.9644
X5.7963Y-4.0825
X5.7963Y-4.1219
X5.7963Y-4.1612
X5.8081Y-4.425
X5.8159Y-3.4683
X5.8199Y-4.8502
X5.8317Y-3.5077
X5.8356Y-3.6888
X5.8356Y-3.7281
X5.8356Y-3.7675
X5.8356Y-3.8463
X5.8356Y-3.8856
X5.8356Y-3.925
X5.8356Y-3.9644
X5.8356Y-4.0037
X5.8356Y-4.0825
X5.8356Y-4.3974
X5.8474Y-3.547
X5.8553Y-4.362
X5.8593Y-5.0943
X5.8711Y-5.0313
X5.875Y-3.7281
X5.875Y-3.7675
X5.875Y-3.8463
X5.875Y-3.8856
X5.875Y-3.925
X5.875Y-3.9644
X5.875Y-4.0431
X5.875Y-4.1219
X5.875Y-4.1612
X5.8947Y-4.3541
X5.9144Y-3.6888
X5.9144Y-3.7281
X5.9144Y-3.7675
X5.9144Y-3.8463
X5.9144Y-3.8856
X5.9144Y-3.925
X5.9144Y-3.9644
X5.9144Y-4.0825
X5.9144Y-4.1219
X5.9341Y-3.5274
X5.9537Y-3.5667
X5.9537Y-3.7281
X5.9537Y-3.7675
X5.9537Y-3.8856
X5.9537Y-4.0037
X5.9537Y-4.1612
X5.9695Y-2.8463
X5.9931Y-3.6888
X5.9931Y-3.925
X5.9931Y-3.9644
X5.9931Y-4.0825
X5.9931Y-4.1219
X6.0325Y-3.7281
X6.0325Y-3.7675
X6.0325Y-3.8069
X6.0325Y-3.8463
X6.0325Y-3.925
X6.0325Y-3.9644
X6.0325Y-4.0431
X6.0325Y-4.1612
X6.0561Y-2.9998
X6.0679Y-3.051
X6.0719Y-3.6888
X6.0719Y-3.7675
X6.0719Y-3.9644
X6.0719Y-4.0037
X6.0719Y-4.0431
X6.0719Y-4.0825
X6.0994Y-4.3069
X6.0994Y-4.3778
X6.0994Y-4.4604
X6.1112Y-3.7281
X6.1112Y-3.7675
X6.1112Y-3.8856
X6.1112Y-3.9644
X6.1112Y-4.0037
X6.1112Y-4.0825
X6.1112Y-4.1612
X6.1506Y-4.0037
X6.1624Y-4.7754
X6.186Y-4.236
X6.186Y-4.803
X6.19Y-3.61
X6.1939Y-5.1573
X6.1978Y-4.1612
X6.2057Y-3.0077
X6.2057Y-4.4604
X6.2096Y-4.3069
X6.2096Y-4.3778
X6.2175Y-3.9526
X6.2175Y-4.1415
X6.2175Y-4.1809
X6.2215Y-3.5313
X6.2372Y-3.7793
X6.2372Y-3.8935
X6.2411Y-3.6376
X6.2411Y-3.6967
X6.253Y-3.8384
X6.2608Y-4.4722
X6.2687Y-3.5313
X6.2726Y-4.1219
X6.2766Y-3.0746
X6.2766Y-4.7754
X6.2805Y-4.5431
X6.2844Y-3.6691
X6.2844Y-3.7321
X6.2923Y-4.0667
X6.3041Y-3.3423
X6.3081Y-2.9998
X6.3081Y-3.6376
X6.3081Y-4.3266
X6.3081Y-4.4014
X6.3081Y-4.5431
X6.312Y-4.1219
X6.3199Y-3.4132
X6.3593Y-5.173
X6.3632Y-2.673
X6.3671Y-3.3423
X6.3671Y-5.0037
X6.3711Y-3.8305
X6.3789Y-4.5431
X6.3907Y-3.8108
X6.3986Y-5.0904
X6.4065Y-4.4959
X6.4104Y-4.5234
X6.4144Y-3.8305
X6.4301Y-3.3423
X6.4577Y-2.7596
X6.4695Y-4.3148
X6.4813Y-3.8226
X6.4852Y-4.799
X6.4931Y-3.3423
X6.4931Y-3.7518
X6.497Y-4.0904
X6.5167Y-4.4959
X6.5285Y-3.6967
X6.5325Y-4.0904
X6.5364Y-3.7478
X6.5522Y-3.5943
X6.5522Y-4.3581
X6.5561Y-3.3817
X6.5797Y-2.8187
X6.5837Y-3.4998
X6.5915Y-4.1061
X6.5915Y-4.3581
X6.5994Y-4.6061
X6.5994Y-4.8502
X6.6073Y-3.5156
X6.6073Y-3.5785
X6.6073Y-3.614
X6.623Y-3.2281
X6.623Y-3.3384
X6.6309Y-3.5313
X6.6309Y-4.1455
X6.6348Y-3.0116
X6.6348Y-3.8344
X6.6545Y-3.5549
X6.6663Y-4.7754
X6.6703Y-3.0746
X6.6703Y-4.3581
X6.6821Y-3.6967
X6.6821Y-4.799
X6.686Y-3.2281
X6.686Y-3.3384
X6.6939Y-3.0077
X6.7096Y-3.6967
X6.7096Y-4.3581
X6.7293Y-4.236
X6.7372Y-4.1179
X6.7372Y-4.1573
X6.7372Y-4.2754
X6.7372Y-4.8502
X6.7451Y-3.6888
X6.749Y-3.2281
X6.749Y-3.3384
X6.749Y-4.5667
X6.7608Y-3.803
X6.7805Y-3.7045
X6.7844Y-5.0274
X6.7923Y-3.6573
X6.812Y-3.8148
X6.812Y-4.4959
X6.8199Y-3.551
X6.8199Y-3.614
X6.8199Y-4.2911
X6.8199Y-4.5707
X6.8199Y-4.6455
X6.8238Y-3.3541
X6.8238Y-3.4526
X6.8238Y-3.5116
X6.8593Y-3.7124
X6.8711Y-4.1494
X6.8907Y-3.3541
X6.8907Y-3.4526
X6.8907Y-3.5116
X6.8947Y-4.9841
X6.9026Y-4.2675
X6.9104Y-4.5785
X6.9183Y-3.7636
X6.9262Y-2.9998
X6.9419Y-4.1494
X6.9419Y-4.3384
X6.9537Y-3.3541
X6.9537Y-3.4526
X6.9537Y-3.5116
X6.9577Y-4.7636
X6.9616Y-4.2557
X6.9695Y-4.799
X6.9734Y-4.9841
X6.9774Y-2.8187
X6.9774Y-3.11
X7.0167Y-4.1455
X7.0167Y-4.3305
X7.0246Y-4.6888
X7.0719Y-4.7754
X7.2726Y-4.0785
X7.2726Y-4.177
X7.3474Y-4.5274
T4
X4.2061Y-2.5561
X4.2061Y-2.6561
X4.2061Y-5.1939
X4.2061Y-5.2939
X4.3061Y-2.5561
X4.3061Y-2.6561
X4.3061Y-5.1939
X4.3061Y-5.2939
X4.4061Y-2.5561
X4.4061Y-2.6561
X4.4061Y-5.1939
X4.4061Y-5.2939
X4.5061Y-2.5561
X4.5061Y-2.6561
X4.5061Y-5.1939
X4.5061Y-5.2939
X4.6061Y-2.5561
X4.6061Y-2.6561
X4.6061Y-5.1939
X4.6061Y-5.2939
X4.7061Y-2.5561
X4.7061Y-2.6561
X4.7061Y-5.1939
X4.7061Y-5.2939
X4.8061Y-2.5561
X4.8061Y-2.6561
X4.8061Y-5.1939
X4.8061Y-5.2939
X4.8396Y-4.3986
X4.8396Y-4.4986
X4.9061Y-2.5561
X4.9061Y-2.6561
X4.9061Y-5.1939
X4.9061Y-5.2939
X5.3478Y-2.5561
X5.3478Y-2.6561
X5.3478Y-5.1939
X5.3478Y-5.2939
X5.4478Y-2.5561
X5.4478Y-2.6561
X5.4478Y-5.1939
X5.4478Y-5.2939
X5.5478Y-2.5561
X5.5478Y-2.6561
X5.5478Y-5.1939
X5.5478Y-5.2939
X5.6478Y-2.5561
X5.6478Y-2.6561
X5.6478Y-5.1939
X5.6478Y-5.2939
X5.7478Y-2.5561
X5.7478Y-2.6561
X5.7478Y-5.1939
X5.7478Y-5.2939
X5.8478Y-2.5561
X5.8478Y-2.6561
X5.8478Y-5.1939
X5.8478Y-5.2939
X5.9478Y-2.5561
X5.9478Y-2.6561
X5.9478Y-5.1939
X5.9478Y-5.2939
X6.0478Y-2.5561
X6.0478Y-2.6561
X6.0478Y-5.1939
X6.0478Y-5.2939
X6.4896Y-2.5561
X6.4896Y-2.6561
X6.4896Y-5.1939
X6.4896Y-5.2939
X6.5896Y-2.5561
X6.5896Y-2.6561
X6.5896Y-5.1939
X6.5896Y-5.2939
X6.6896Y-2.5561
X6.6896Y-2.6561
X6.6896Y-5.1939
X6.6896Y-5.2939
X6.7896Y-2.5561
X6.7896Y-2.6561
X6.7896Y-5.1939
X6.7896Y-5.2939
X6.8896Y-2.5561
X6.8896Y-2.6561
X6.8896Y-5.1939
X6.8896Y-5.2939
X6.9896Y-2.5561
X6.9896Y-2.6561
X6.9896Y-5.1939
X6.9896Y-5.2939
X7.0896Y-2.5561
X7.0896Y-2.6561
X7.0896Y-5.1939
X7.0896Y-5.2939
X7.1896Y-2.5561
X7.1896Y-2.6561
X7.1896Y-5.1939
X7.1896Y-5.2939
T5
X4.075Y-3.405
X4.175Y-3.405
X4.275Y-3.405
X4.375Y-3.405
X4.475Y-3.405
X4.575Y-3.405
X5.0545Y-4.5037
X5.1545Y-4.5037
X6.7963Y-3.988
X6.8963Y-3.988
X6.9963Y-3.988
X7.0963Y-3.988
T6
X4.575Y-2.975
X4.575Y-4.875
X7.175Y-3.1
X7.175Y-4.75
T2
X7.3278Y-3.9614G85X7.3553Y-3.9614
G05
X7.3278Y-4.2902G85X7.3553Y-4.2902
G05
T3
X7.2195Y-4.0382G85X7.2274Y-4.0382
G05
X7.2195Y-4.2134G85X7.2274Y-4.2134
G05
T0
M30
